<?xml version="1.0" standalone="no"?>
<!DOCTYPE svg PUBLIC "-//W3C//DTD SVG 1.1//EN" "http://www.w3.org/Graphics/SVG/1.1/DTD/svg11.dtd">
<svg version="1.1" xmlns="http://www.w3.org/2000/svg" viewBox="0 0 98.47371414137388 21.893061321050027" width="196.94742828274775" height="43.786122642100054"><!-- svg-source:excalidraw --><metadata></metadata><defs><style class="style-fonts">
      </style></defs><g stroke-linecap="round"><g transform="translate(10.776651376485916 10.394706674334657) rotate(0 38.46020569420102 0.5518239861903567)"><path d="M-0.78 0.66 C12.03 0.71, 64.47 1.56, 77.7 1.49 M1.02 -0.04 C13.55 0.16, 63.65 -0.57, 76.49 -0.36" stroke="#1e1e1e" stroke-width="4" fill="none"></path></g><g transform="translate(10.776651376485916 10.394706674334657) rotate(0 38.46020569420102 0.5518239861903567)"><path d="M53.01 8.21 C62.72 4.38, 71.17 2.73, 76.49 -0.36 M53.01 8.21 C58.23 5.44, 64.04 3.71, 76.49 -0.36" stroke="#1e1e1e" stroke-width="4" fill="none"></path></g><g transform="translate(10.776651376485916 10.394706674334657) rotate(0 38.46020569420102 0.5518239861903567)"><path d="M52.99 -8.89 C62.88 -6.39, 71.33 -1.71, 76.49 -0.36 M52.99 -8.89 C58.18 -7.53, 63.99 -5.13, 76.49 -0.36" stroke="#1e1e1e" stroke-width="4" fill="none"></path></g></g><mask></mask></svg>